<svg width="24" height="24" viewBox="0 0 24 24" fill="none" xmlns="http://www.w3.org/2000/svg">
<path fill-rule="evenodd" clip-rule="evenodd" d="M7.0336 6C7.32759 3.81519 9.51095 2 12 2C14.489 2 16.6724 3.81519 16.9664 6H19.847C20.9516 6 21.847 6.89543 21.847 8C21.847 8.09464 21.8403 8.18916 21.8269 8.28284L20.1126 20.2828C19.9718 21.2681 19.128 22 18.1327 22H5.8673C4.872 22 4.02815 21.2681 3.8874 20.2828L2.17311 8.28284C2.0169 7.18937 2.7767 6.17631 3.87017 6.0201C3.96385 6.00672 4.05837 6 4.15301 6H7.0336ZM14.9279 6C14.6239 4.93808 13.398 4 12 4C10.602 4 9.37611 4.93808 9.07212 6H14.9279ZM4.15301 8H7V10H9V8H15V10H17V8H19.847L18.1327 20H5.8673L4.15301 8Z" fill="white"/>
</svg>
