<svg width="44" height="44" viewBox="0 0 44 44" fill="none" xmlns="http://www.w3.org/2000/svg">
<circle cx="22" cy="22" r="22" fill="#6342E8"/>
<g clip-path="url(#clip0_17802_6)">
<path d="M12.6667 17.3333H17.3333V12.6667H12.6667V17.3333ZM19.6667 31.3333H24.3333V26.6667H19.6667V31.3333ZM12.6667 31.3333H17.3333V26.6667H12.6667V31.3333ZM12.6667 24.3333H17.3333V19.6667H12.6667V24.3333ZM19.6667 24.3333H24.3333V19.6667H19.6667V24.3333ZM26.6667 12.6667V17.3333H31.3333V12.6667H26.6667ZM19.6667 17.3333H24.3333V12.6667H19.6667V17.3333ZM26.6667 24.3333H31.3333V19.6667H26.6667V24.3333ZM26.6667 31.3333H31.3333V26.6667H26.6667V31.3333Z" fill="white"/>
</g>
<defs>
<clipPath id="clip0_17802_6">
<rect width="28" height="28" fill="white" transform="translate(8 8)"/>
</clipPath>
</defs>
</svg>
