<svg width="305" height="343" viewBox="0 0 305 343" fill="none" xmlns="http://www.w3.org/2000/svg">
<g clip-path="url(#clip0_17809_7)">
<path d="M-38.7305 133.602C-32.1933 134.014 -25.8468 135.97 -20.2112 139.309C-14.5756 142.648 -9.81128 147.275 -6.30885 152.811C-5.32729 154.381 -4.04596 156.106 -4.72544 158.037C-4.96216 158.778 -5.44309 159.417 -6.08963 159.849C-6.73616 160.28 -7.51006 160.48 -8.28481 160.415C-9.25076 160.207 -10.1215 159.687 -10.7626 158.935C-11.4038 158.183 -11.7798 157.241 -11.8327 156.254C-11.8855 155.267 -11.6123 154.29 -11.0551 153.474C-10.498 152.658 -9.68781 152.048 -8.74961 151.738C-4.21568 149.803 0.358635 152.793 4.05181 155.179C12.467 160.615 21.7229 165.532 31.9197 166.151C41.3541 166.725 51.4711 163.025 56.7187 154.841C57.6368 153.41 55.3574 152.087 54.4438 153.511C49.2394 161.627 38.7185 164.542 29.5708 163.287C24.1193 162.427 18.8554 160.64 14.0071 158.002C11.4928 156.697 9.05415 155.25 6.66485 153.73C4.39127 152.143 1.9814 150.761 -0.536461 149.6C-4.73557 147.875 -10.2945 148.01 -13.2276 151.982C-15.9641 155.688 -13.8493 161.858 -9.27248 162.899C-8.26847 163.097 -7.23103 163.043 -6.25317 162.741C-5.27532 162.44 -4.38762 161.9 -3.66963 161.171C-2.95163 160.441 -2.42579 159.545 -2.13926 158.563C-1.85273 157.58 -1.81446 156.542 -2.02788 155.54C-2.48454 153.358 -4.12745 151.223 -5.39913 149.439C-9.22006 144.063 -14.1982 139.612 -19.9667 136.415C-25.7353 133.218 -32.1473 131.357 -38.7306 130.967C-40.4253 130.883 -40.4209 133.519 -38.7306 133.602L-38.7305 133.602Z" fill="#CCCCCC"/>
<path d="M281.579 290.882C277.198 288.061 273.549 284.243 270.929 279.739C268.309 275.235 266.793 270.174 266.506 264.971C266.433 263.501 266.211 261.806 267.432 260.728C267.883 260.305 268.465 260.048 269.081 259.999C269.698 259.95 270.312 260.111 270.825 260.456C271.416 260.975 271.819 261.674 271.973 262.445C272.126 263.216 272.023 264.016 271.677 264.722C271.331 265.428 270.763 266 270.059 266.351C269.356 266.702 268.557 266.811 267.785 266.663C263.887 266.249 261.869 262.399 260.228 259.31C256.491 252.272 251.968 245.269 245.126 240.885C238.796 236.829 230.336 235.476 223.521 239.125C222.328 239.763 223.399 241.566 224.585 240.931C231.345 237.312 239.781 239.367 245.648 243.785C249.1 246.496 252.063 249.778 254.409 253.489C255.649 255.371 256.782 257.321 257.852 259.303C258.816 261.287 259.954 263.181 261.253 264.963C263.501 267.789 267.413 269.851 270.99 268.23C271.787 267.817 272.476 267.224 273.003 266.497C273.529 265.771 273.879 264.931 274.023 264.045C274.167 263.159 274.102 262.252 273.833 261.396C273.564 260.539 273.099 259.758 272.474 259.114C271.853 258.587 271.112 258.223 270.316 258.053C269.52 257.884 268.694 257.914 267.913 258.142C267.132 258.371 266.419 258.789 265.839 259.36C265.259 259.932 264.83 260.638 264.591 261.416C264.223 263.245 264.215 265.128 264.567 266.961C265.138 272.176 266.87 277.197 269.637 281.654C272.405 286.11 276.136 289.889 280.558 292.712C281.702 293.427 282.72 291.595 281.579 290.882L281.579 290.882Z" fill="#CCCCCC"/>
<path d="M171.311 59.2919C174.382 55.0832 178.406 51.6623 183.055 49.3094C187.703 46.9566 192.843 45.7388 198.053 45.7559C199.526 45.7684 201.23 45.6461 202.235 46.9276C202.631 47.403 202.854 47.9985 202.867 48.6167C202.881 49.235 202.684 49.8394 202.309 50.3313C201.757 50.8903 201.036 51.252 200.257 51.3607C199.479 51.4693 198.686 51.3188 198.002 50.9325C197.317 50.5461 196.779 49.9453 196.469 49.2227C196.16 48.5001 196.097 47.696 196.29 46.9342C196.931 43.0663 200.891 41.2759 204.07 39.8185C211.313 36.4978 218.567 32.391 223.341 25.8164C227.758 19.7333 229.6 11.3661 226.354 4.34861C225.787 3.12087 223.925 4.08436 224.49 5.30602C227.709 12.2656 225.167 20.5682 220.416 26.1678C217.509 29.4565 214.06 32.2232 210.219 34.3479C208.269 35.4766 206.256 36.4938 204.215 37.4463C202.178 38.293 200.222 39.3188 198.367 40.5116C195.415 42.5907 193.129 46.3768 194.54 50.042C194.905 50.8617 195.458 51.5845 196.152 52.1527C196.847 52.7209 197.665 53.1188 198.541 53.3144C199.417 53.5101 200.326 53.4981 201.196 53.2795C202.067 53.0609 202.874 52.6418 203.553 52.0556C204.115 51.4667 204.522 50.7476 204.738 49.9628C204.953 49.1779 204.971 48.3518 204.788 47.5585C204.606 46.7652 204.23 46.0295 203.693 45.4173C203.157 44.8051 202.476 44.3357 201.714 44.0509C199.909 43.5768 198.03 43.459 196.18 43.7042C190.941 43.9691 185.828 45.4058 181.218 47.9086C176.608 50.4114 172.619 53.9164 169.544 58.1656C168.763 59.2665 170.533 60.39 171.311 59.292L171.311 59.2919Z" fill="#CCCCCC"/>
<path d="M159.823 76.8696H153.58V97.3872H159.823V76.8696Z" fill="#CCCCCC"/>
<path d="M58.8809 92.5513L63.2197 88.2115L48.9637 73.9524L44.6249 78.2921L58.8809 92.5513Z" fill="#B3B3B3"/>
<path d="M234.415 135.669L238.754 140.009L253.01 125.75L248.671 121.41L234.415 135.669Z" fill="#B3B3B3"/>
</g>
<circle opacity="0.4" cx="158" cy="178" r="58" fill="#27AE60"/>
<path d="M180.05 165.124L178.896 163.961C177.628 162.68 175.551 162.68 174.279 163.961L154.674 183.73L147.718 176.719C146.45 175.439 144.372 175.439 143.104 176.72L141.951 177.882C140.683 179.161 140.683 181.255 141.951 182.535L152.361 193.041C153.63 194.32 155.707 194.32 156.976 193.041L180.05 169.777C181.317 168.497 181.317 166.403 180.05 165.124Z" fill="#27AE60"/>
<g clip-path="url(#clip1_17809_7)">
<path d="M274.575 219.457C278.895 219.457 282.397 215.953 282.397 211.63C282.397 207.307 278.895 203.802 274.575 203.802C270.255 203.802 266.754 207.307 266.754 211.63C266.754 215.953 270.255 219.457 274.575 219.457Z" fill="#6C63FF"/>
<path d="M153.587 32.1819C156.672 32.1819 159.174 29.6788 159.174 26.591C159.174 23.5032 156.672 21 153.587 21C150.501 21 148 23.5032 148 26.591C148 29.6788 150.501 32.1819 153.587 32.1819Z" fill="#FF6584"/>
<path d="M62.2201 191.502C65.3056 191.502 67.8069 188.999 67.8069 185.911C67.8069 182.823 65.3056 180.32 62.2201 180.32C59.1346 180.32 56.6333 182.823 56.6333 185.911C56.6333 188.999 59.1346 191.502 62.2201 191.502Z" fill="#FF6584"/>
<path d="M197.587 259.182C200.672 259.182 203.174 256.679 203.174 253.591C203.174 250.503 200.672 248 197.587 248C194.501 248 192 250.503 192 253.591C192 256.679 194.501 259.182 197.587 259.182Z" fill="#FF6584"/>
<path d="M257.758 172.493C260.844 172.493 263.345 169.99 263.345 166.902C263.345 163.814 260.844 161.311 257.758 161.311C254.673 161.311 252.172 163.814 252.172 166.902C252.172 169.99 254.673 172.493 257.758 172.493Z" fill="#6C63FF"/>
<path d="M87.9195 248.53C91.005 248.53 93.5063 246.027 93.5063 242.939C93.5063 239.851 91.005 237.348 87.9195 237.348C84.8339 237.348 82.3326 239.851 82.3326 242.939C82.3326 246.027 84.8339 248.53 87.9195 248.53Z" fill="#6C63FF"/>
<path d="M142.587 270.182C145.672 270.182 148.174 267.679 148.174 264.591C148.174 261.503 145.672 259 142.587 259C139.501 259 137 261.503 137 264.591C137 267.679 139.501 270.182 142.587 270.182Z" fill="#E6E6E6"/>
<path d="M215.299 65.1461C218.384 65.1461 220.886 62.643 220.886 59.5552C220.886 56.4674 218.384 53.9642 215.299 53.9642C212.213 53.9642 209.712 56.4674 209.712 59.5552C209.712 62.643 212.213 65.1461 215.299 65.1461Z" fill="#CCCCCC"/>
<path d="M4.13607 126.621C9.98603 126.99 15.6654 128.741 20.7086 131.73C25.7518 134.72 30.0152 138.863 33.1495 143.819C34.0279 145.225 35.1745 146.769 34.5665 148.499C34.3546 149.162 33.9242 149.733 33.3457 150.12C32.7671 150.507 32.0746 150.686 31.3813 150.628C30.5168 150.441 29.7377 149.976 29.1639 149.302C28.5901 148.629 28.2537 147.786 28.2063 146.902C28.159 146.018 28.4035 145.144 28.9021 144.413C29.4007 143.682 30.1257 143.136 30.9653 142.858C35.0226 141.126 39.1161 143.803 42.421 145.939C49.9516 150.807 58.2345 155.209 67.3594 155.763C75.8021 156.277 84.8556 152.964 89.5515 145.637C90.3731 144.355 88.3333 143.171 87.5157 144.446C82.8585 151.713 73.4436 154.322 65.2574 153.199C60.379 152.429 55.6685 150.828 51.3298 148.467C49.0798 147.299 46.8975 146.003 44.7594 144.641C42.7248 143.221 40.5683 141.984 38.3151 140.944C34.5574 139.4 29.5828 139.52 26.958 143.077C24.5092 146.395 26.4017 151.919 30.4974 152.852C31.3959 153.029 32.3243 152.98 33.1993 152.71C34.0744 152.44 34.8688 151.957 35.5113 151.304C36.1538 150.651 36.6244 149.849 36.8808 148.969C37.1372 148.089 37.1714 147.159 36.9804 146.263C36.5718 144.309 35.1016 142.397 33.9636 140.8C30.5443 135.986 26.0895 132.001 20.9274 129.139C15.7652 126.277 10.0272 124.61 4.13594 124.261C2.61938 124.186 2.62333 126.546 4.13594 126.621L4.13607 126.621Z" fill="#CCCCCC"/>
<path d="M80.8599 228.386C79.0054 232.665 76.1627 236.443 72.5649 239.412C68.9671 242.381 64.7167 244.456 60.162 245.466C58.8735 245.745 57.4087 246.187 56.2786 245.267C55.8396 244.93 55.5279 244.454 55.3947 243.916C55.2615 243.379 55.3146 242.813 55.5453 242.31C55.9179 241.713 56.4765 241.255 57.1351 241.007C57.7937 240.759 58.5156 240.735 59.1895 240.937C59.8634 241.14 60.4519 241.558 60.8641 242.128C61.2764 242.698 61.4895 243.388 61.4706 244.091C61.6716 247.593 58.5643 249.936 56.074 251.834C50.3999 256.158 44.871 261.171 41.9935 267.85C39.3312 274.03 39.3668 281.697 43.5817 287.184C44.3191 288.144 45.7559 286.936 45.0221 285.981C40.8419 280.539 41.4299 272.791 44.4793 266.967C46.3722 263.524 48.8409 260.43 51.7784 257.82C53.2599 256.45 54.8181 255.166 56.4139 253.933C58.026 252.793 59.5337 251.512 60.9192 250.106C63.089 247.71 64.3412 243.955 62.3884 241.033C61.908 240.39 61.2836 239.867 60.5651 239.508C59.8466 239.149 59.0538 238.962 58.2503 238.964C57.4467 238.966 56.6547 239.155 55.9374 239.517C55.2201 239.879 54.5976 240.404 54.1194 241.05C53.7444 241.674 53.5302 242.382 53.4962 243.11C53.4622 243.837 53.6094 244.562 53.9246 245.218C54.2398 245.875 54.7132 246.443 55.3023 246.872C55.8914 247.301 56.5777 247.577 57.2999 247.675C58.9694 247.734 60.6344 247.467 62.2017 246.889C66.7261 245.626 70.9097 243.366 74.4444 240.274C77.979 237.181 80.7747 233.336 82.6254 229.022C83.0908 227.907 81.3242 227.275 80.86 228.386L80.8599 228.386Z" fill="#CCCCCC"/>
<path d="M142.087 63.2196C137.434 62.9263 132.917 61.5337 128.906 59.1559C124.895 56.7782 121.504 53.4831 119.012 49.5406C118.313 48.423 117.401 47.1948 117.885 45.8191C118.053 45.2916 118.395 44.8369 118.855 44.5294C119.316 44.2218 119.866 44.0795 120.418 44.1259C121.105 44.274 121.725 44.6443 122.181 45.1798C122.638 45.7153 122.905 46.3862 122.943 47.089C122.981 47.7917 122.786 48.4874 122.39 49.0686C121.993 49.6498 121.416 50.0843 120.749 50.3051C117.522 51.6826 114.266 49.5537 111.637 47.8547C105.648 43.9833 99.0601 40.4822 91.8026 40.041C85.0878 39.6329 77.8871 42.2677 74.1522 48.0951C73.4988 49.1146 75.1212 50.0567 75.7714 49.0422C79.4755 43.2628 86.9636 41.1872 93.4744 42.0804C97.3544 42.6932 101.101 43.9661 104.552 45.8441C106.341 46.7735 108.077 47.8038 109.777 48.8868C111.396 50.0168 113.111 51.0008 114.903 51.8273C117.892 53.0559 121.848 52.9599 123.936 50.1312C124.379 49.4608 124.659 48.6961 124.753 47.8982C124.848 47.1003 124.755 46.2912 124.481 45.5357C124.208 44.7802 123.761 44.0993 123.178 43.5473C122.594 42.9953 121.89 42.5876 121.121 42.3567C120.406 42.2157 119.668 42.2544 118.972 42.4693C118.276 42.6842 117.644 43.0685 117.133 43.5879C116.622 44.1073 116.248 44.7454 116.044 45.4451C115.84 46.1449 115.813 46.8843 115.964 47.5972C116.474 49.1879 117.29 50.6638 118.364 51.9423C121.083 55.7708 124.627 58.9401 128.732 61.2165C132.838 63.493 137.402 64.8188 142.087 65.0961C143.294 65.1558 143.29 63.2791 142.087 63.2196L142.087 63.2196Z" fill="#CCCCCC"/>
<path d="M146.022 102.686H140.436V121.056H146.022V102.686Z" fill="#CCCCCC"/>
<path d="M55.6913 89.8657L59.574 85.9801L46.8166 73.2131L42.9339 77.0987L55.6913 89.8657Z" fill="#B3B3B3"/>
<path d="M212.773 128.471L216.656 132.357L229.413 119.59L225.53 115.705L212.773 128.471Z" fill="#B3B3B3"/>
</g>
<defs>
<clipPath id="clip0_17809_7">
<rect width="305" height="343" fill="white"/>
</clipPath>
<clipPath id="clip1_17809_7">
<rect width="292" height="308" fill="white" transform="translate(3 7)"/>
</clipPath>
</defs>
</svg>
