<svg width="34" height="34" viewBox="0 0 34 34" fill="none" xmlns="http://www.w3.org/2000/svg">
<circle cx="17" cy="17" r="17" fill="white"/>
<g clip-path="url(#clip0_17803_7)" filter="url(#filter0_d_17803_7)">
<path d="M20.75 9.5C19.3 9.5 17.9083 10.175 17 11.2417C16.0917 10.175 14.7 9.5 13.25 9.5C10.6833 9.5 8.66666 11.5167 8.66666 14.0833C8.66666 17.2333 11.5 19.8 15.7917 23.7L17 24.7917L18.2083 23.6917C22.5 19.8 25.3333 17.2333 25.3333 14.0833C25.3333 11.5167 23.3167 9.5 20.75 9.5ZM17.0833 22.4583L17 22.5417L16.9167 22.4583C12.95 18.8667 10.3333 16.4917 10.3333 14.0833C10.3333 12.4167 11.5833 11.1667 13.25 11.1667C14.5333 11.1667 15.7833 11.9917 16.225 13.1333H17.7833C18.2167 11.9917 19.4667 11.1667 20.75 11.1667C22.4167 11.1667 23.6667 12.4167 23.6667 14.0833C23.6667 16.4917 21.05 18.8667 17.0833 22.4583Z" fill="#6342E8"/>
</g>
<defs>
<filter id="filter0_d_17803_7" x="3" y="7" width="28" height="28" filterUnits="userSpaceOnUse" color-interpolation-filters="sRGB">
<feFlood flood-opacity="0" result="BackgroundImageFix"/>
<feColorMatrix in="SourceAlpha" type="matrix" values="0 0 0 0 0 0 0 0 0 0 0 0 0 0 0 0 0 0 127 0" result="hardAlpha"/>
<feOffset dy="4"/>
<feGaussianBlur stdDeviation="2"/>
<feComposite in2="hardAlpha" operator="out"/>
<feColorMatrix type="matrix" values="0 0 0 0 0 0 0 0 0 0 0 0 0 0 0 0 0 0 0.25 0"/>
<feBlend mode="normal" in2="BackgroundImageFix" result="effect1_dropShadow_17803_7"/>
<feBlend mode="normal" in="SourceGraphic" in2="effect1_dropShadow_17803_7" result="shape"/>
</filter>
<clipPath id="clip0_17803_7">
<rect width="20" height="20" fill="white" transform="translate(7 7)"/>
</clipPath>
</defs>
</svg>
